<svg width="100" height="100" viewBox="0 0 100 100" fill="none" xmlns="http://www.w3.org/2000/svg">
<circle cx="50" cy="50" r="46.8333" fill="black" stroke="#CAA247" stroke-width="6.33333"/>
<mask id="path-2-inside-1_310_20" fill="white">
<path d="M13 64.6667C13 57.1188 19.1188 51 26.6667 51H74.3333C81.8812 51 88 57.1188 88 64.6667V64.6667C88 79.7625 75.7624 92 60.6667 92H40.3333C25.2376 92 13 79.7624 13 64.6667V64.6667Z"/>
</mask>
<path d="M13 64.6667C13 57.1188 19.1188 51 26.6667 51H74.3333C81.8812 51 88 57.1188 88 64.6667V64.6667C88 79.7625 75.7624 92 60.6667 92H40.3333C25.2376 92 13 79.7624 13 64.6667V64.6667Z" fill="black"/>
<path d="M6.33333 62.1718C6.33333 52.3199 14.3199 44.3333 24.1718 44.3333H76.8282C86.6801 44.3333 94.6667 52.3199 94.6667 62.1718L81.3333 64.6667C81.3333 60.8007 78.1993 57.6667 74.3333 57.6667H26.6667C22.8007 57.6667 19.6667 60.8007 19.6667 64.6667L6.33333 62.1718ZM88 92H13H88ZM36.1616 92C19.6879 92 6.33333 78.6455 6.33333 62.1718V62.1718C6.33333 52.3199 14.3199 44.3333 24.1718 44.3333L26.6667 57.6667C22.8007 57.6667 19.6667 60.8007 19.6667 64.6667V64.6667C19.6667 79.7624 28.9194 92 40.3333 92H36.1616ZM76.8282 44.3333C86.6801 44.3333 94.6667 52.3199 94.6667 62.1718V62.1718C94.6667 78.6455 81.3121 92 64.8384 92H60.6667C72.0806 92 81.3333 79.7624 81.3333 64.6667V64.6667C81.3333 60.8007 78.1993 57.6667 74.3333 57.6667L76.8282 44.3333Z" fill="#CAA247" mask="url(#path-2-inside-1_310_20)"/>
<path d="M70 28.6666C70 39.7123 61.0457 48.6666 50 48.6666C38.9543 48.6666 30 39.7123 30 28.6666C30 17.621 38.9543 8.66665 50 8.66665C61.0457 8.66665 70 17.621 70 28.6666Z" fill="black" stroke="#CAA247" stroke-width="6.66667"/>
<path d="M50.1667 34.7083C54.7345 34.7083 58.9294 34.2091 62.0336 33.369C63.5736 32.9522 64.9403 32.4266 65.9611 31.7735C66.9044 31.17 68 30.1595 68 28.6666C68 27.1737 66.9044 26.1633 65.9611 25.5598C64.9403 24.9066 63.5736 24.381 62.0336 23.9642C58.9294 23.1242 54.7345 22.625 50.1667 22.625C45.5989 22.625 41.4039 23.1242 38.2997 23.9642C36.7597 24.381 35.3931 24.9066 34.3722 25.5598C33.429 26.1633 32.3333 27.1737 32.3333 28.6666C32.3333 30.1595 33.429 31.17 34.3722 31.7735C35.3931 32.4266 36.7597 32.9522 38.2997 33.369C41.4039 34.2091 45.5989 34.7083 50.1667 34.7083Z" fill="black" stroke="#CAA247" stroke-width="3.33333"/>
<path d="M48.4189 24.373C48.4189 23.5227 49.1083 22.8333 49.9586 22.8333V22.8333C50.809 22.8333 51.4983 23.5227 51.4983 24.373V32.9603C51.4983 33.8106 50.809 34.5 49.9586 34.5V34.5C49.1083 34.5 48.4189 33.8106 48.4189 32.9603V24.373Z" fill="#CAA247"/>
</svg>
