<svg width="100" height="100" viewBox="0 0 100 100" fill="none" xmlns="http://www.w3.org/2000/svg">
<circle cx="50" cy="50" r="46.8333" fill="black" stroke="#CAA247" stroke-width="6.33333"/>
<rect x="17.3333" y="54.3333" width="65.3333" height="28" rx="11.6667" fill="black" stroke="#CAA247" stroke-width="6.66667"/>
<path d="M70 28.6666C70 39.7123 61.0457 48.6666 50 48.6666C38.9543 48.6666 30 39.7123 30 28.6666C30 17.621 38.9543 8.66665 50 8.66665C61.0457 8.66665 70 17.621 70 28.6666Z" fill="black" stroke="#CAA247" stroke-width="6.66667"/>
<path d="M50.1667 34.7083C54.7345 34.7083 58.9294 34.2091 62.0336 33.369C63.5736 32.9522 64.9403 32.4266 65.9611 31.7735C66.9044 31.17 68 30.1595 68 28.6666C68 27.1737 66.9044 26.1633 65.9611 25.5598C64.9403 24.9066 63.5736 24.381 62.0336 23.9642C58.9294 23.1242 54.7345 22.625 50.1667 22.625C45.5989 22.625 41.4039 23.1242 38.2997 23.9642C36.7597 24.381 35.3931 24.9066 34.3722 25.5598C33.429 26.1633 32.3333 27.1737 32.3333 28.6666C32.3333 30.1595 33.429 31.17 34.3722 31.7735C35.3931 32.4266 36.7597 32.9522 38.2997 33.369C41.4039 34.2091 45.5989 34.7083 50.1667 34.7083Z" fill="black" stroke="#CAA247" stroke-width="3.33333"/>
<path d="M48.4189 24.373C48.4189 23.5227 49.1083 22.8333 49.9586 22.8333V22.8333C50.809 22.8333 51.4983 23.5227 51.4983 24.373V32.9603C51.4983 33.8106 50.809 34.5 49.9586 34.5V34.5C49.1083 34.5 48.4189 33.8106 48.4189 32.9603V24.373Z" fill="#CAA247"/>
</svg>
